<svg xmlns="http://www.w3.org/2000/svg" x="0px" y="0px"
width="32" height="32"
viewBox="0 0 172 172"
style=" fill:#000000;"><g fill="none" fill-rule="nonzero" stroke="none" stroke-width="1" stroke-linecap="butt" stroke-linejoin="miter" stroke-miterlimit="10" stroke-dasharray="" stroke-dashoffset="0" font-family="none" font-weight="none" font-size="none" text-anchor="none" style="mix-blend-mode: normal"><path d="M0,172v-172h172v172z" fill="none"></path><g fill="#565cc0"><path d="M86.46192,21.5c-21.54618,0 -41.24699,8.74447 -56.05957,23.00122l7.45361,7.74756c12.97617,-12.48925 29.95788,-19.99878 48.60596,-19.99878c18.47813,0 35.30911,7.37588 48.23852,19.66284l7.40112,-7.78955c-14.76259,-14.02904 -34.28905,-22.62329 -55.63965,-22.62329zM149.06177,78.09497c-12.91885,24.23929 -36.20809,40.15503 -62.69434,40.15503c-26.43209,0 -49.67131,-15.83929 -62.61035,-39.99756l-9.47974,5.07055c4.16437,7.77523 9.36158,14.79689 15.33765,20.91211l-17.24829,16.87036l7.5166,7.68457l17.7207,-17.34278c4.67984,3.73212 9.68972,6.99549 15.0227,9.61621l-11.01245,24.38696l9.79468,4.41967l11.18042,-24.7334c5.8864,1.94188 12.038,3.21293 18.39258,3.66382v27.07446h10.75v-27.08496c6.29225,-0.44485 12.37967,-1.70528 18.21411,-3.61133l10.12012,24.53394l9.94165,-4.10474l-10.09912,-24.47095c5.2388,-2.55506 10.2126,-5.64725 14.82324,-9.28027l16.90186,16.89136l7.59009,-7.60059l-16.46094,-16.47143c6.18109,-6.25608 11.50926,-13.51062 15.77857,-21.52099z"></path></g></g></svg>